<svg xmlns="http://www.w3.org/2000/svg" xmlns:xlink="http://www.w3.org/1999/xlink" width="35.814" height="91.604" enable-background="new 0 0 35.814 91.604" overflow="visible" viewBox="0 0 35.814 91.604" xml:space="preserve"><g id="Layer_1"><path fill="#FFF" d="M25.03809,7.40137c0,3.92578-3.18164,7.10156-7.10742,7.10156c-3.91992,0-7.10156-3.17578-7.10156-7.10156 s3.18164-7.10742,7.10156-7.10742C21.85645,0.29395,25.03809,3.47559,25.03809,7.40137z"/><path fill="#FFF" d="M8.91895,18.72168c-4.76367,0-8.61914,3.86133-8.61914,8.61914V50.6084 c0,1.48828,1.20703,2.69531,2.70117,2.69531c1.48242,0,2.68945-1.20703,2.68945-2.69531V32.88965 c0-0.87891,0.70898-1.59375,1.59375-1.59375s1.59961,0.71484,1.59961,1.59375h0.00586v18.62109v35.51953 c0,2.37891,1.76367,4.30078,3.93164,4.30078c2.17383,0,3.94336-1.92188,3.94336-4.30078V55.58887h-0.01172 c0-0.65039,0.52734-1.17188,1.17773-1.17188c0.64453,0,1.16602,0.52148,1.16602,1.17188h0.01172h-0.04688H19.0498v31.44141 c0,2.37891,1.76953,4.30078,3.94336,4.30078c2.16797,0,3.93164-1.92188,3.93164-4.30078V51.51074V32.88965h0.00586 c0-0.87891,0.71484-1.59375,1.59961-1.59375s1.59375,0.71484,1.59375,1.59375V50.6084c0,1.48828,1.20703,2.69531,2.68945,2.69531 c1.49414,0,2.70117-1.20703,2.70117-2.69531V27.34082c0-4.75781-3.85547-8.61914-8.61914-8.61914H8.91895z"/><linearGradient id="XMLID_1_" x1="-589.098" x2="-589.098" y1="14.526" y2=".387" gradientTransform="matrix(1 0 0 1 607.03125 0)" gradientUnits="userSpaceOnUse"><stop offset="0" style="stop-color:#fff"/><stop offset="1" style="stop-color:#000"/></linearGradient><path fill="url(#XMLID_1_)" d="M25.03809,7.40137 c0,3.92578-3.18164,7.10156-7.10742,7.10156c-3.91992,0-7.10156-3.17578-7.10156-7.10156s3.18164-7.10742,7.10156-7.10742 C21.85645,0.29395,25.03809,3.47559,25.03809,7.40137z" enable-background="new"/><linearGradient id="XMLID_2_" x1="-589.124" x2="-589.124" y1="91.472" y2="19.219" gradientTransform="matrix(1 0 0 1 607.03125 0)" gradientUnits="userSpaceOnUse"><stop offset="0" style="stop-color:#fff"/><stop offset="1" style="stop-color:#000"/></linearGradient><path fill="url(#XMLID_2_)" d="M8.91895,18.72168 c-4.76367,0-8.61914,3.86133-8.61914,8.61914V50.6084c0,1.48828,1.20703,2.69531,2.70117,2.69531 c1.48242,0,2.68945-1.20703,2.68945-2.69531V32.88965c0-0.87891,0.70898-1.59375,1.59375-1.59375s1.59961,0.71484,1.59961,1.59375 h0.00586v18.62109v35.51953c0,2.37891,1.76367,4.30078,3.93164,4.30078c2.17383,0,3.94336-1.92188,3.94336-4.30078V55.58887 h-0.01172c0-0.65039,0.52734-1.17188,1.17773-1.17188c0.64453,0,1.16602,0.52148,1.16602,1.17188h0.01172h-0.04688H19.0498 v31.44141c0,2.37891,1.76953,4.30078,3.94336,4.30078c2.16797,0,3.93164-1.92188,3.93164-4.30078V51.51074V32.88965h0.00586 c0-0.87891,0.71484-1.59375,1.59961-1.59375s1.59375,0.71484,1.59375,1.59375V50.6084c0,1.48828,1.20703,2.69531,2.68945,2.69531 c1.49414,0,2.70117-1.20703,2.70117-2.69531V27.34082c0-4.75781-3.85547-8.61914-8.61914-8.61914H8.91895z" enable-background="new"/><path fill="none" stroke="#000" stroke-width="1" d="M25.03809,7.40137c0,3.92578-3.18164,7.10156-7.10742,7.10156 c-3.91992,0-7.10156-3.17578-7.10156-7.10156s3.18164-7.10742,7.10156-7.10742 C21.85645,0.29395,25.03809,3.47559,25.03809,7.40137z"/><path fill="none" stroke="#000" stroke-width="1" d="M8.91895,18.72168c-4.76367,0-8.61914,3.86133-8.61914,8.61914V50.6084 c0,1.48828,1.20703,2.69531,2.70117,2.69531c1.48242,0,2.68945-1.20703,2.68945-2.69531V32.88965 c0-0.87891,0.70898-1.59375,1.59375-1.59375s1.59961,0.71484,1.59961,1.59375h0.00586v18.62109v35.51953 c0,2.37891,1.76367,4.30078,3.93164,4.30078c2.17383,0,3.94336-1.92188,3.94336-4.30078V55.58887h-0.01172 c0-0.65039,0.52734-1.17188,1.17773-1.17188c0.64453,0,1.16602,0.52148,1.16602,1.17188h0.01172h-0.04688H19.0498v31.44141 c0,2.37891,1.76953,4.30078,3.94336,4.30078c2.16797,0,3.93164-1.92188,3.93164-4.30078V51.51074V32.88965h0.00586 c0-0.87891,0.71484-1.59375,1.59961-1.59375s1.59375,0.71484,1.59375,1.59375V50.6084c0,1.48828,1.20703,2.69531,2.68945,2.69531 c1.49414,0,2.70117-1.20703,2.70117-2.69531V27.34082c0-4.75781-3.85547-8.61914-8.61914-8.61914H8.91895z"/></g></svg>